<svg width="98" height="88" viewBox="0 0 98 88" fill="none" xmlns="http://www.w3.org/2000/svg">
<g clip-path="url(#clip0_1140_456)">
<path d="M8.81868 60.4688C8.81868 60.4688 8.94378 60.9318 9.19398 61.7828C9.45668 62.6338 9.86948 63.8598 10.5451 65.3738C11.8711 68.3648 14.3605 72.4948 18.7139 76.0488C23.0047 79.6148 29.1845 82.3688 36.1148 83.0688C39.6178 83.4448 43.1698 83.3318 46.7978 82.7688C50.3758 82.2178 54.0288 81.1548 57.4058 79.7658C60.8218 78.3508 64.0738 76.5618 67.0258 74.4968C70.0408 72.3948 72.6558 70.1168 75.0198 67.6268C77.3838 65.1238 79.3108 62.5958 80.9868 59.9308C82.6128 57.3278 83.8768 54.7248 84.8148 52.2588C85.7408 49.8318 86.3908 47.4038 86.7418 45.4138C87.1168 43.3488 87.2668 41.5468 87.3048 40.0698C87.3668 37.1169 87.0918 35.4775 87.0918 35.4775L97.4368 34.6641C97.4368 34.6641 97.6378 36.8916 97.2868 40.7208C97.0998 42.6228 96.7488 44.9258 96.0858 47.4658C95.4108 50.0818 94.4728 52.7718 93.1218 55.7128C91.7828 58.6168 90.0438 61.5948 87.9178 64.5228C85.8278 67.4018 83.2388 70.3298 80.3868 72.9448C77.5348 75.5728 74.2068 78.0638 70.7538 80.1158C67.2388 82.2178 63.4608 83.9698 59.5208 85.2838C55.5428 86.5978 51.5268 87.4618 47.4488 87.8118C43.4078 88.1628 39.2918 87.9998 35.5148 87.3238C27.8459 85.9978 21.2158 82.4558 16.7874 78.2138C12.3089 73.9838 9.96958 69.3538 8.78118 66.0878C8.18068 64.4478 7.83047 63.1088 7.61777 62.2078C7.43017 61.3068 7.33008 60.8188 7.33008 60.8188L8.81868 60.4688Z" fill="url(#paint0_linear_1140_456)"/>
<path d="M78.109 41.8472C78.109 41.8472 78.297 40.4712 78.159 38.181C78.021 35.8909 77.446 32.5496 75.507 29.1833C74.494 27.4814 73.305 25.9171 71.541 24.4404C69.903 23.0263 67.876 21.8124 65.662 20.8989C63.448 19.9853 61.008 19.3972 58.494 19.1344C57.243 19.0217 55.967 18.9467 54.691 18.9842C54.065 18.9842 53.452 19.0468 52.727 19.0843C52.089 19.1594 51.513 19.1969 50.875 19.3096C45.809 20.0229 40.993 22.0252 37.127 24.6531C35.163 25.9922 33.525 27.4063 32.086 28.9831C30.697 30.4973 29.534 32.1241 28.6333 33.6634C26.8319 36.7669 26.0062 39.6202 25.656 41.5972C25.3057 43.5872 25.3057 44.7262 25.3057 44.7262L16.1611 43.8622C16.1611 43.8622 16.3237 42.2602 17.0618 39.5702C17.7999 36.9046 19.2635 33.1753 21.9781 29.3835C23.3292 27.4814 24.9554 25.5917 26.9444 23.8022C28.8709 22.0502 31.185 20.3733 33.637 19.0343C38.578 16.2936 44.433 14.4791 50.375 14.1787C51.101 14.1287 51.914 14.1287 52.652 14.1162C53.302 14.1412 54.065 14.1412 54.816 14.2038C56.292 14.2789 57.756 14.5041 59.182 14.7669C62.047 15.33 64.799 16.2686 67.263 17.5451C69.728 18.834 71.904 20.4108 73.693 22.2629C75.432 23.9899 76.821 26.1423 77.721 28.0695C79.56 32.0616 79.823 35.7157 79.748 38.1685C79.71 39.3952 79.598 40.3832 79.498 41.0342C79.398 41.6722 79.347 42.0102 79.347 42.0102L78.109 41.8472Z" fill="url(#paint1_linear_1140_456)"/>
<path d="M88.8555 27.9069C88.8555 27.9069 88.7055 27.469 88.4295 26.6305C88.1425 25.8171 87.6795 24.6156 86.9415 23.1765C85.5025 20.3107 82.8885 16.3437 78.6095 12.8523C74.3695 9.37334 68.4395 6.42005 61.6965 5.48145C58.2815 4.98085 54.8415 4.95585 51.3015 5.43135C47.7865 5.90695 44.3085 6.85805 40.9935 8.24705C34.3505 10.9877 28.4961 15.3927 24.0177 20.2857C19.5142 25.1913 16.3117 30.5849 14.4228 35.3654C13.9349 36.5792 13.5596 37.693 13.1968 38.8818C12.8716 39.9582 12.6089 41.0223 12.3962 42.0233C11.9709 44.0253 11.7707 45.7642 11.6957 47.1912C11.5455 50.0442 11.7707 51.6213 11.7707 51.6213L0.51204 52.1222C0.51204 52.1222 0.386947 49.8822 0.912347 46.1022C1.17505 44.2252 1.62544 41.9602 2.36344 39.4702C2.73874 38.2311 3.17664 36.9297 3.72704 35.5532C4.22744 34.2892 4.85294 32.85 5.54094 31.4609C8.31804 25.817 12.5588 19.8727 18.2132 14.6168C23.8426 9.37335 30.9485 4.89325 38.7795 2.35285C42.6825 1.07645 46.7725 0.275548 50.8005 0.062748C54.8035 -0.162452 58.8945 0.187949 62.5725 1.03885C70.0785 2.70325 76.3455 6.49505 80.6485 10.6372C84.9895 14.817 87.4045 19.2345 88.7055 22.4006C89.3555 23.9899 89.7315 25.2789 89.9815 26.1674C90.1935 27.0559 90.3185 27.5189 90.3185 27.5189L88.8555 27.9069Z" fill="url(#paint2_linear_1140_456)"/>
<path d="M63.0857 51.1828C63.0857 51.1828 63.4237 50.4448 63.9987 49.1558C64.1487 48.8298 64.3117 48.4798 64.4737 48.0918C64.5997 47.7168 64.7367 47.3038 64.8867 46.8778C65.1617 45.9648 65.3997 44.9258 65.5497 43.7868C65.8507 41.5098 65.7127 38.7813 64.6247 36.2784C63.5737 33.7881 61.4717 31.6607 58.8947 30.6095C56.3177 29.5207 53.3907 29.4206 50.8387 29.9838C48.2117 30.5469 46.0597 31.6982 44.3457 32.9496C42.6697 34.1886 41.5067 35.5025 40.7687 36.4536C40.0307 37.4172 39.6797 38.0054 39.6797 38.0054L34.2637 34.151C34.2637 34.151 34.8267 33.4002 35.9517 32.2363C37.0907 31.0725 38.8047 29.5207 41.2187 28.1192C43.5707 26.7551 46.7107 25.5287 50.1127 25.2033C53.5407 24.8529 57.3557 25.3911 60.6087 27.2181C63.8867 29.0077 66.2877 32.1362 67.2387 35.3399C68.2267 38.5685 67.9897 41.6848 67.4017 44.1248C67.1007 45.3638 66.7257 46.4528 66.3257 47.3908C66.0877 47.9168 65.9627 48.2168 65.6997 48.7178C65.4877 49.0808 65.2877 49.4188 65.0997 49.7308C64.3867 50.9448 63.9737 51.6458 63.9737 51.6458L63.0857 51.1828Z" fill="url(#paint3_linear_1140_456)"/>
<path d="M21.5537 50.4705C21.5537 50.4705 21.5662 50.7954 21.5787 51.4084C21.6037 51.9974 21.6538 52.8484 21.8289 53.9364C22.1541 56.0894 22.9673 59.1925 25.0314 62.2585C26.0196 63.7475 27.4582 65.3374 29.047 66.5764C30.6859 67.8774 32.6369 68.9665 34.7889 69.7425C36.9409 70.5055 39.2799 70.9815 41.6819 71.1065C44.0459 71.2565 46.5609 71.0184 48.9249 70.5434C53.7159 69.5544 58.2199 67.4144 61.8599 64.7244C62.7859 64.0604 63.6359 63.3475 64.4619 62.6345L65.6879 61.5075L66.7389 60.4314C68.1399 58.9294 69.3279 57.4035 70.2909 55.9145C72.2179 52.9485 73.2939 50.2455 73.8439 48.3305C74.4069 46.4155 74.5449 45.3145 74.5449 45.3145L82.2879 46.9165C82.2879 46.9165 81.9749 48.3674 81.0619 50.7704C80.1619 53.1604 78.5349 56.4395 75.9079 59.8435C74.5949 61.5455 73.0439 63.2595 71.2419 64.8995C70.7669 65.3125 70.2909 65.7375 69.8039 66.1505C69.3279 66.5265 68.8529 66.9015 68.3649 67.2895C67.3389 68.0525 66.2759 68.8034 65.1499 69.4914C60.6719 72.2824 55.2919 74.3344 49.7009 75.0604C46.8859 75.3984 44.0959 75.4484 41.3189 75.0734C38.5669 74.7224 35.9019 73.9724 33.5009 72.8834C31.0989 71.7944 28.9469 70.3674 27.1955 68.7284C25.3691 67.0514 24.0681 65.3245 23.0298 63.4975C20.9782 59.8815 20.3903 56.4525 20.2277 54.1365C20.1401 52.9735 20.1526 52.0344 20.1776 51.4084C20.2151 50.7954 20.2277 50.4825 20.2277 50.4825L21.5537 50.4705Z" fill="url(#paint4_linear_1140_456)"/>
<path d="M46.2098 39.6568C46.2098 39.6568 45.1848 40.4578 44.2588 42.0598C43.3328 43.5988 42.8328 46.1769 43.9958 47.7919C44.4968 48.5049 45.3098 49.0429 46.1478 49.2309C46.3478 49.2809 46.5978 49.3178 46.7608 49.3308C47.1358 49.3808 47.1608 49.3559 47.4108 49.3559C47.8238 49.3429 48.2118 49.2809 48.5748 49.1929C50.0128 48.8299 50.8138 48.1669 50.8138 48.1669L53.1908 52.6348C53.1908 52.6348 52.8028 52.8218 52.1018 53.0598C51.4018 53.2978 50.3758 53.5858 49.0878 53.6479C48.4498 53.6728 47.7488 53.6609 47.0108 53.5359C46.6858 53.4859 46.1348 53.361 45.9228 53.285C45.4968 53.16 45.1598 53.0349 44.7588 52.8469C43.2578 52.1589 41.8568 50.8829 41.1438 49.1929C40.4558 47.6039 40.4928 45.8018 40.8938 44.3998C41.2938 42.9608 42.0068 41.8219 42.7078 40.9709C43.4078 40.1079 44.1088 39.5319 44.6088 39.1439C45.1218 38.7563 45.4218 38.5938 45.4218 38.5938L46.2098 39.6568Z" fill="url(#paint5_linear_1140_456)"/>
<path d="M53.5537 48.7808C53.5537 48.7808 54.5667 47.9798 55.3797 46.3898C55.7797 45.6018 56.0927 44.6128 56.1047 43.6118C56.1427 42.5988 55.8547 41.5848 55.2917 40.8218C54.7417 40.0578 53.9407 39.5698 53.1157 39.3568C52.7277 39.2568 52.2527 39.1948 51.8897 39.1948C51.4887 39.1948 51.1137 39.2448 50.7637 39.3068C49.3627 39.6078 48.5867 40.2078 48.5867 40.2078L46.3477 35.5153C46.3477 35.5153 46.7357 35.3526 47.4487 35.1649C48.1617 34.9772 49.1997 34.7644 50.4757 34.7769C51.1137 34.7895 51.8017 34.852 52.5147 35.0147C53.2657 35.1899 53.9407 35.4152 54.6917 35.8031C56.1307 36.5289 57.4317 37.8179 58.0947 39.3568C58.7697 40.8838 58.8197 42.5608 58.4817 43.9378C58.1567 45.3388 57.4937 46.4648 56.8307 47.3038C56.1677 48.1418 55.4797 48.7178 54.9917 49.0808C54.4917 49.4438 54.2037 49.6058 54.2037 49.6058L53.5537 48.7808Z" fill="url(#paint6_linear_1140_456)"/>
<path d="M33.5004 39.3955C33.5004 39.3955 31.5234 42.4485 30.9104 45.2645C30.2974 48.0805 29.4968 53.4985 33.7874 58.5295C33.7874 58.5295 37.8904 63.8605 46.3474 63.9105C46.3474 63.9105 52.1144 64.2485 58.4444 60.7445C58.4444 60.7445 62.7354 58.3165 64.9114 55.7635L59.3323 51.0465C59.3323 51.0465 56.9054 54.5875 52.4144 56.8155C52.4144 56.8155 45.9594 60.4445 39.6794 57.8035C39.6794 57.8035 33.9374 56.0015 32.9124 48.5185C32.9124 48.5185 32.5364 43.1875 34.5504 39.8705L33.5004 39.3955Z" fill="url(#paint7_linear_1140_456)"/>
</g>
<defs>
<linearGradient id="paint0_linear_1140_456" x1="91.2638" y1="34.9202" x2="13.1021" y2="12.3289" gradientUnits="userSpaceOnUse">
<stop stop-color="#D8D8D8"/>
<stop offset="0.288174" stop-color="#919191"/>
<stop offset="1" stop-color="#444444"/>
</linearGradient>
<linearGradient id="paint1_linear_1140_456" x1="20.0862" y1="44.4682" x2="58.404" y2="70.4382" gradientUnits="userSpaceOnUse">
<stop stop-color="#D8D8D8"/>
<stop offset="0.269639" stop-color="#919191"/>
<stop offset="1" stop-color="#444444"/>
</linearGradient>
<linearGradient id="paint2_linear_1140_456" x1="6.04244" y1="51.6823" x2="67.7335" y2="73.7172" gradientUnits="userSpaceOnUse">
<stop stop-color="#D8D8D8"/>
<stop offset="0.288174" stop-color="#919191"/>
<stop offset="1" stop-color="#444444"/>
</linearGradient>
<linearGradient id="paint3_linear_1140_456" x1="34.4497" y1="38.4123" x2="46.4087" y2="58.8758" gradientUnits="userSpaceOnUse">
<stop stop-color="#D8D8D8"/>
<stop offset="0.331064" stop-color="#919191"/>
<stop offset="1" stop-color="#444444"/>
</linearGradient>
<linearGradient id="paint4_linear_1140_456" x1="79.4859" y1="46.0955" x2="44.1039" y2="17.5496" gradientUnits="userSpaceOnUse">
<stop stop-color="#D8D8D8"/>
<stop offset="0.288174" stop-color="#919191"/>
<stop offset="1" stop-color="#444444"/>
</linearGradient>
<linearGradient id="paint5_linear_1140_456" x1="54.5428" y1="49.587" x2="54.6778" y2="40.744" gradientUnits="userSpaceOnUse">
<stop stop-color="#D8D8D8"/>
<stop offset="0.500549" stop-color="#919191"/>
<stop offset="1" stop-color="#444444"/>
</linearGradient>
<linearGradient id="paint6_linear_1140_456" x1="42.7637" y1="39.1108" x2="43.9087" y2="48.7888" gradientUnits="userSpaceOnUse">
<stop stop-color="#D8D8D8"/>
<stop offset="0.551338" stop-color="#919191"/>
<stop offset="1" stop-color="#444444"/>
</linearGradient>
<linearGradient id="paint7_linear_1140_456" x1="61.4704" y1="50.2865" x2="46.9274" y2="29.9458" gradientUnits="userSpaceOnUse">
<stop stop-color="#D8D8D8"/>
<stop offset="0.424241" stop-color="#919191"/>
<stop offset="1" stop-color="#444444"/>
</linearGradient>
<clipPath id="clip0_1140_456">
<rect width="97" height="88" fill="white" transform="translate(0.5)"/>
</clipPath>
</defs>
</svg>
